<?xml version="1.0" standalone="no"?>
<!DOCTYPE svg PUBLIC "-//W3C//DTD SVG 20010904//EN"
 "http://www.w3.org/TR/2001/REC-SVG-20010904/DTD/svg10.dtd">
<svg version="1.0" xmlns="http://www.w3.org/2000/svg"
 width="695.000000pt" height="444.000000pt" viewBox="0 0 695.000000 444.000000"
 preserveAspectRatio="xMidYMid meet">

<g transform="translate(0.000000,444.000000) scale(0.100000,-0.100000)"
fill="#000000" stroke="none">
<path d="M0 2426 l0 -2014 26 -16 c23 -16 99 -80 166 -141 15 -14 30 -25 33
-25 9 0 258 -195 275 -215 11 -13 349 -15 3231 -15 l3219 0 -2 787 -3 786
-120 32 c-66 18 -154 44 -195 58 -41 14 -151 49 -245 77 -93 28 -173 55 -177
59 -4 3 2 12 13 19 12 8 18 9 15 3 -9 -15 13 -24 28 -12 7 6 17 7 21 3 5 -4 5
1 2 10 -4 11 -2 18 5 18 6 0 8 3 5 6 -4 4 -13 1 -22 -6 -13 -11 -14 -10 -9 5
6 15 3 17 -18 13 -20 -4 -25 -1 -20 10 3 10 1 13 -6 8 -11 -6 -17 12 -13 37 1
5 -3 6 -9 2 -6 -4 -8 -16 -4 -28 6 -22 6 -22 -10 -2 -8 11 -16 16 -16 11 0 -5
-8 -2 -17 5 -9 8 -14 9 -10 3 9 -16 -36 -12 -46 4 -5 7 -12 10 -17 7 -5 -3
-12 0 -16 6 -4 8 -3 9 4 5 7 -4 12 -3 12 3 0 20 -41 23 -56 4 -14 -17 -14 -17
-7 1 4 13 3 17 -5 12 -6 -3 -14 -1 -18 5 -4 8 -12 4 -21 -12 -8 -13 -12 -16
-9 -7 4 14 1 15 -17 8 -12 -4 -21 -13 -20 -19 2 -6 -5 -11 -15 -11 -14 0 -15
-2 -2 -10 13 -9 13 -10 0 -10 -22 0 -218 68 -202 70 6 2 18 3 24 4 7 0 14 10
16 21 3 16 1 17 -7 5 -7 -10 -11 -11 -11 -3 0 15 35 35 45 25 4 -4 2 3 -6 15
-7 12 -18 19 -24 16 -5 -4 -7 -2 -2 2 9 11 48 14 41 4 -2 -4 8 -7 23 -6 20 1
27 -2 25 -12 -2 -11 0 -12 11 -3 11 9 26 8 68 -5 30 -9 56 -17 59 -17 3 -1 12
-5 20 -11 8 -5 25 -10 39 -11 13 -2 27 -7 30 -11 3 -5 19 -10 34 -11 16 -1 34
-5 40 -9 7 -4 19 -8 27 -10 8 -1 134 -37 280 -79 146 -42 279 -80 295 -84 17
-4 72 -19 123 -33 89 -25 92 -25 92 -6 0 10 -7 19 -15 19 -19 0 -20 24 -2 42
9 8 14 41 14 93 l1 80 -15 -59 -16 -58 -35 5 c-19 4 -36 8 -38 10 -2 1 21 99
51 216 33 128 54 231 54 259 -1 26 -4 37 -6 25 -5 -27 1 -27 -73 -6 -60 16
-71 30 -52 61 7 10 21 9 70 -7 57 -17 62 -18 62 -2 0 12 -16 21 -57 32 -52 14
-58 18 -55 40 4 36 13 40 65 24 45 -13 48 -13 45 2 -2 11 -18 21 -41 26 -42
10 -56 29 -37 52 8 10 18 11 36 4 34 -12 44 -11 44 5 0 8 -15 17 -35 20 -24 5
-35 12 -35 24 0 29 19 42 46 32 33 -13 32 7 -1 22 -40 18 -31 44 13 39 18 -3
15 16 -5 27 -10 6 -14 16 -10 26 4 10 11 14 17 11 14 -9 12 2 -5 29 -14 21
-14 24 0 29 13 6 15 41 15 254 l0 248 -25 -29 c-26 -31 -31 -41 -15 -31 6 3
10 -4 10 -16 0 -19 -4 -21 -32 -14 -18 4 -54 8 -80 9 -56 2 -178 61 -241 116
-23 20 -52 42 -65 49 -27 15 -54 54 -56 84 -1 12 -7 21 -14 20 -7 -2 -12 4
-12 13 0 8 -4 13 -9 9 -5 -3 -12 -1 -16 5 -3 5 -11 10 -16 10 -6 0 -7 -5 -3
-11 4 -8 0 -8 -15 0 -11 7 -21 16 -21 22 0 6 -4 8 -8 5 -5 -3 -19 8 -30 24
-14 18 -28 27 -37 24 -8 -4 -25 0 -38 8 -12 9 -26 17 -32 18 -5 2 -23 16 -39
31 l-29 27 -31 -19 c-43 -27 -69 -24 -94 11 -30 39 -28 50 16 104 45 55 74 60
97 16 9 -17 21 -28 27 -24 5 4 14 1 18 -6 6 -9 12 -9 30 0 18 10 24 9 34 -6 7
-9 18 -14 24 -10 10 6 71 -21 82 -36 3 -4 18 -1 32 7 15 7 40 15 55 16 32 3
103 -18 103 -31 0 -5 22 -25 49 -45 28 -20 53 -45 56 -55 4 -11 18 -23 33 -27
15 -3 29 -10 32 -14 3 -5 17 -10 30 -12 17 -3 26 -11 28 -27 3 -20 8 -22 42
-16 25 4 41 2 46 -6 4 -6 2 -14 -4 -16 -7 -2 -12 -8 -12 -13 0 -6 6 -7 13 -4
6 4 3 -1 -7 -9 -25 -21 -13 -32 13 -14 12 8 18 17 15 21 -3 3 7 5 24 5 32 -1
33 -7 12 -51 -10 -21 -11 -30 -2 -39 9 -9 12 -9 12 2 0 9 6 6 16 -8 8 -12 19
-22 25 -22 5 0 9 199 9 515 0 283 -3 515 -7 515 -8 0 -136 -95 -233 -174 -41
-34 -88 -70 -105 -82 -16 -11 -77 -53 -135 -93 -82 -57 -111 -71 -135 -69 -34
3 -40 25 -11 42 10 6 31 22 45 35 27 24 157 113 240 164 25 16 67 46 93 68 26
21 52 39 58 39 6 0 34 16 63 35 l52 35 -1088 0 c-598 0 -1087 -2 -1087 -4 0
-6 169 -60 265 -84 44 -12 123 -32 175 -46 52 -14 127 -33 165 -41 166 -37
484 -121 493 -130 3 -3 -2 -13 -11 -23 -10 -10 -17 -31 -17 -47 0 -15 -13 -49
-28 -74 -15 -25 -45 -84 -66 -131 -21 -47 -47 -97 -57 -112 -11 -14 -19 -31
-19 -36 0 -6 -4 -12 -8 -14 -4 -1 -17 -25 -28 -53 -16 -39 -26 -51 -45 -53
-47 -5 -55 11 -31 66 25 57 30 94 10 74 -7 -7 -22 -12 -34 -12 -12 0 -33 -13
-47 -30 -14 -16 -28 -30 -31 -30 -16 0 7 67 56 164 6 11 19 46 30 78 26 81 67
167 95 202 17 21 21 32 13 41 -18 22 -49 6 -48 -23 0 -15 -50 -129 -111 -253
l-111 -227 -88 20 c-48 10 -94 21 -102 23 -115 32 -223 65 -227 69 -3 3 6 29
20 58 49 104 65 143 69 163 1 11 8 23 13 27 6 4 10 11 11 15 1 14 28 68 41 81
7 7 13 19 13 27 0 7 4 15 8 17 15 6 73 101 70 114 -2 11 -8 11 -27 1 -15 -7
-33 -34 -49 -72 -38 -93 -114 -247 -139 -280 -12 -17 -34 -55 -48 -85 -14 -30
-34 -68 -44 -85 -10 -16 -116 -223 -236 -460 -120 -236 -219 -431 -220 -433
-9 -10 -67 33 -80 58 -9 17 -33 41 -55 55 -30 19 -39 32 -42 56 -2 27 -9 34
-38 44 -39 14 -70 4 -70 -21 0 -29 -27 -24 -103 19 l-77 44 18 24 c11 13 30
47 44 74 13 28 30 59 36 70 6 11 24 47 40 80 17 33 44 87 61 120 16 33 33 71
35 85 5 24 61 124 191 345 32 55 77 133 99 173 23 40 48 85 56 100 8 15 44 79
79 142 35 63 66 118 68 123 2 4 -1040 7 -2316 7 l-2321 0 0 -2014z m6505 1870
l27 -18 -24 -25 c-26 -28 -112 -93 -123 -93 -4 0 -5 19 -1 42 l7 42 -39 -42
c-27 -29 -48 -43 -68 -44 -16 -1 -40 -3 -54 -4 -14 -1 -32 -4 -40 -7 -60 -22
-72 -17 -104 44 -35 64 -52 63 -58 -6 -5 -63 -6 -63 -39 -68 -13 -2 -25 -9
-25 -15 -1 -7 -2 -23 -3 -37 -1 -17 -7 -25 -18 -25 -23 -1 -51 -39 -58 -78
-10 -62 -35 -103 -146 -245 -21 -27 -41 -31 -106 -18 -14 3 5 38 43 77 25 27
54 67 65 89 24 50 36 65 77 94 17 12 32 29 32 37 0 8 3 13 8 11 4 -3 7 18 8
46 1 82 32 173 70 202 27 21 120 44 147 37 4 -1 27 4 50 13 62 22 334 16 372
-9z m218 -143 c-10 -16 -34 -52 -55 -80 l-38 -53 -61 2 -60 2 43 44 c24 24 59
51 78 59 19 8 45 24 59 34 37 30 55 25 34 -8z m-808 -408 c14 -37 25 -75 25
-84 0 -29 -19 -40 -52 -30 -26 7 -37 3 -81 -29 -47 -34 -117 -78 -174 -110
-28 -15 -53 -16 -53 -1 0 13 19 30 140 122 76 58 94 76 92 94 -5 31 25 88 51
100 12 6 23 9 25 8 2 -1 14 -33 27 -70z m-1025 -40 c0 -21 -28 -75 -39 -75
-19 0 -19 15 0 51 20 40 39 51 39 24z m80 -15 c0 -24 -51 -110 -65 -110 -8 0
-15 2 -15 5 0 8 41 88 52 103 13 15 28 16 28 2z m90 -32 c0 -6 -7 -7 -16 -4
-9 3 -18 6 -20 6 -3 0 -3 4 1 10 7 11 35 2 35 -12z m944 -13 c16 -12 17 -15 4
-15 -9 0 -23 -3 -32 -6 -12 -4 -16 0 -16 15 0 24 17 27 44 6z m-955 -50 c3
-15 -2 -17 -30 -11 -38 7 -43 11 -34 26 10 17 60 6 64 -15z m-2139 -39 c0 -8
-9 -18 -20 -21 -11 -3 -20 -11 -20 -18 0 -8 -3 -8 -12 1 -8 8 -5 16 13 31 29
24 39 26 39 7z m2350 -17 c0 -18 -31 -22 -48 -5 -15 14 -15 18 -3 26 16 10 51
-4 51 -21z m-275 0 c10 -15 -1 -23 -20 -15 -9 3 -13 10 -10 16 8 13 22 13 30
-1z m476 -49 c5 0 9 -5 9 -11 0 -15 -43 -7 -48 10 -3 10 0 12 12 8 10 -4 22
-7 27 -7z m-233 -21 c-2 -6 -8 -10 -13 -10 -5 0 -11 4 -13 10 -2 6 4 11 13 11
9 0 15 -5 13 -11z m-478 -57 c0 -14 -36 -82 -46 -86 -6 -2 -16 -1 -23 3 -17
11 35 102 55 94 8 -3 14 -8 14 -11z m86 4 c7 -18 -44 -116 -60 -116 -25 0 -24
14 5 71 29 59 45 71 55 45z m104 -18 c0 -17 -4 -19 -27 -13 -36 9 -38 12 -24
29 16 19 51 8 51 -16z m330 -18 c0 -5 -7 -10 -16 -10 -8 0 -12 5 -9 10 3 6 10
10 16 10 5 0 9 -4 9 -10z m-360 -30 c8 -5 11 -12 8 -16 -11 -10 -60 5 -53 16
8 12 26 12 45 0z m260 -12 c0 -18 -16 -23 -44 -12 -23 9 -7 34 20 32 16 -2 24
-9 24 -20z m84 -18 c38 -14 33 -33 -6 -25 -39 9 -42 11 -33 24 8 13 8 13 39 1z
m-374 -20 c4 0 11 -7 14 -16 5 -14 1 -16 -26 -10 -38 7 -42 11 -33 26 4 6 14
9 22 6 8 -3 18 -6 23 -6z m260 -21 c0 -5 -6 -9 -14 -9 -23 0 -46 11 -41 20 6
10 55 0 55 -11z m-483 -4 c0 -8 -4 -15 -9 -15 -10 0 -11 14 -1 23 9 10 10 9
10 -8z m688 5 c3 -5 -1 -10 -9 -10 -9 0 -16 5 -16 10 0 6 4 10 9 10 6 0 13 -4
16 -10z m1499 -39 c30 -16 57 -27 62 -23 4 4 4 2 1 -5 -4 -6 -2 -13 4 -15 7
-2 -4 -4 -24 -5 -22 -1 -43 6 -56 18 -11 10 -26 19 -32 19 -7 0 -9 3 -6 7 4 3
2 12 -4 20 -17 20 -5 16 55 -16z m-1729 -12 c4 -6 5 -13 1 -16 -8 -8 -56 6
-56 17 0 13 47 13 55 -1z m-428 -19 c2 0 3 -9 3 -20 0 -23 -1 -24 -51 -9 -32
10 -37 15 -29 30 8 15 16 16 42 8 18 -5 34 -9 35 -9z m618 -40 c3 -5 -3 -10
-14 -10 -12 0 -21 5 -21 10 0 6 6 10 14 10 8 0 18 -4 21 -10z m-98 -34 c10
-10 -9 -26 -30 -26 -31 0 -51 15 -44 33 5 13 12 14 38 7 17 -5 34 -11 36 -14z
m96 -20 c26 -6 37 -29 19 -40 -15 -9 -82 14 -82 28 0 17 9 25 23 21 7 -2 24
-6 40 -9z m164 8 c-3 -3 -12 -4 -19 -1 -8 3 -5 6 6 6 11 1 17 -2 13 -5z m-433
-14 c32 -12 35 -40 4 -40 -43 0 -67 11 -65 31 1 21 22 24 61 9z m536 -10 c12
-8 12 -10 -5 -10 -11 0 -27 5 -35 10 -12 8 -12 10 5 10 11 0 27 -5 35 -10z
m-395 -40 c10 -16 -20 -27 -53 -18 -28 7 -31 11 -22 28 9 16 14 17 40 8 17 -5
32 -14 35 -18z m268 13 c4 -2 7 -11 7 -20 0 -12 -7 -14 -37 -8 -48 9 -53 12
-46 31 4 11 14 13 37 8 17 -3 34 -8 39 -11z m-840 -12 c4 -4 5 -15 2 -23 -5
-13 -13 -14 -37 -7 -38 11 -42 14 -34 35 5 12 13 14 34 9 15 -3 31 -10 35 -14z
m1111 -1 c11 -11 -54 -1 -74 11 -10 6 -1 7 25 3 22 -3 44 -10 49 -14z m-156
-15 c2 -2 2 -11 -2 -20 -5 -13 -13 -15 -38 -10 -41 9 -42 10 -34 31 5 13 14
15 38 10 17 -3 34 -8 36 -11z m-260 -10 c3 -2 2 -11 -2 -20 -5 -13 -13 -15
-38 -10 -43 9 -48 13 -48 32 0 13 8 14 42 9 23 -4 44 -9 46 -11z m367 -16 c52
-14 69 -28 55 -44 -9 -11 -22 -10 -68 3 -68 18 -66 17 -59 37 7 18 19 19 72 4z
m-276 -10 c28 -10 39 -27 25 -41 -4 -5 -74 9 -82 17 -5 4 10 35 18 35 4 0 21
-5 39 -11z m-690 -59 c102 -33 200 -63 218 -66 18 -3 35 -9 37 -13 7 -10 -61
-142 -81 -158 -10 -8 -12 -12 -5 -8 19 10 14 -2 -10 -24 -29 -27 -43 -16 -22
17 13 21 14 24 2 15 -8 -7 -18 -10 -22 -6 -4 4 -4 -1 0 -11 4 -11 3 -17 -2
-14 -5 4 -10 -5 -11 -19 -1 -19 1 -22 8 -12 7 11 9 11 9 -3 0 -9 -3 -18 -7
-21 -5 -2 -2 -2 5 -1 13 4 29 -23 19 -32 -3 -3 -19 2 -37 11 -25 13 -29 19
-20 30 13 16 5 35 -13 35 -7 0 -6 -4 3 -10 11 -7 12 -12 4 -20 -8 -8 -27 -4
-68 16 -31 16 -56 32 -56 37 0 5 13 33 29 62 25 45 27 56 17 70 -22 30 -53 10
-71 -45 -9 -28 -21 -52 -26 -56 -7 -4 -167 74 -189 93 -5 5 92 193 100 193 3
0 88 -27 189 -60z m419 54 c22 -6 31 -37 13 -48 -18 -12 -71 6 -71 24 0 29 14
35 58 24z m381 -25 c30 -11 41 -32 22 -43 -13 -9 -71 14 -71 28 0 11 9 26 15
26 1 0 16 -5 34 -11z m341 -25 c0 -21 -14 -24 -53 -12 -30 9 -34 14 -27 29 8
15 15 16 45 6 19 -6 35 -16 35 -23z m-601 15 c32 -11 39 -27 20 -46 -8 -8 -20
-8 -43 -1 -41 14 -48 21 -40 41 7 20 20 21 63 6z m811 -9 c0 -5 -2 -10 -4 -10
-3 0 -8 5 -11 10 -3 6 -1 10 4 10 6 0 11 -4 11 -10z m823 -9 c4 0 16 -1 27 -1
11 0 20 -7 20 -15 0 -12 -7 -14 -27 -9 -16 4 -29 11 -31 15 -2 4 -9 6 -16 3
-8 -3 -16 2 -19 10 -5 12 -2 13 16 7 12 -5 25 -9 30 -10z m-1895 -1 c14 0 16
-26 2 -35 -19 -12 -60 7 -60 27 0 16 5 19 23 14 12 -3 28 -6 35 -6z m688 -16
c23 -10 32 -19 28 -29 -8 -19 -13 -19 -80 1 -50 14 -65 30 -47 48 8 8 53 -1
99 -20z m264 6 c29 -15 14 -41 -19 -34 -37 9 -41 13 -34 29 6 17 27 19 53 5z
m270 -22 c0 -6 -8 -7 -17 -3 -18 7 -40 13 -55 14 -5 1 -8 5 -8 10 0 5 17 4 40
-1 22 -6 40 -15 40 -20z m-841 16 c22 -5 31 -12 31 -26 0 -25 -22 -32 -64 -18
-26 8 -33 15 -29 30 6 22 14 23 62 14z m-255 -24 c18 -18 -10 -33 -48 -26 -39
8 -39 7 -30 31 5 13 14 15 38 11 17 -4 35 -11 40 -16z m1346 10 c12 -8 12 -10
-5 -9 -11 0 -29 4 -40 9 -18 8 -18 9 5 9 14 0 32 -4 40 -9z m303 -7 c4 -2 7
-11 7 -19 0 -16 -32 -19 -58 -5 -9 5 -25 12 -34 15 -10 3 -18 11 -18 17 0 8
14 9 48 4 26 -4 50 -9 55 -12z m-715 1 c13 -4 22 -14 22 -26 0 -18 -4 -20 -32
-14 -38 7 -53 20 -44 35 8 12 21 13 54 5z m265 -10 c15 -3 27 -10 27 -15 0
-12 -32 -11 -64 1 -29 11 -36 34 -8 26 9 -3 29 -8 45 -12z m-825 0 c16 -5 22
-13 20 -28 -4 -25 -25 -31 -62 -16 -23 8 -25 13 -16 30 11 21 21 23 58 14z
m301 0 c34 -7 46 -44 14 -44 -38 0 -63 13 -63 31 0 21 3 22 49 13z m821 -20
c12 -12 11 -14 -11 -14 -35 0 -89 20 -89 32 0 14 82 -1 100 -18z m-1397 1 c25
-10 35 -20 31 -30 -7 -18 -20 -19 -63 -4 -29 10 -39 27 -24 42 9 10 16 9 56
-8z m1704 -6 c23 -20 3 -40 -36 -35 -63 9 -81 17 -81 38 0 19 4 20 52 14 29
-4 58 -12 65 -17z m-733 -10 c5 -4 6 -14 3 -22 -5 -13 -13 -13 -46 -5 -38 10
-51 25 -35 41 8 7 66 -3 78 -14z m249 7 c15 -4 27 -13 27 -21 0 -12 -7 -14
-27 -9 -48 10 -53 13 -53 28 0 9 6 14 13 12 6 -3 24 -7 40 -10z m-807 -12 c57
-16 61 -21 42 -47 -12 -15 -17 -16 -63 -2 -80 24 -77 22 -65 45 13 24 17 24
86 4z m279 4 c27 -12 32 -23 14 -33 -19 -13 -59 4 -59 25 0 23 9 25 45 8z
m800 1 c47 -12 70 -39 33 -39 -37 0 -98 23 -98 37 0 16 9 16 65 2z m-1372 -20
c39 -10 44 -18 26 -36 -8 -8 -22 -8 -47 -1 -45 12 -44 11 -36 32 7 19 8 19 57
5z m960 -5 c28 -6 40 -44 13 -44 -11 0 -76 19 -84 25 -10 8 13 35 27 31 9 -3
28 -8 44 -12z m258 4 c40 -11 54 -38 20 -38 -25 0 -81 20 -81 29 0 9 11 21 18
21 3 0 22 -5 43 -12z m-1481 -8 c17 -9 17 -13 -11 -70 -16 -33 -29 -64 -29
-68 0 -4 -5 -13 -11 -19 -14 -14 -42 -5 -32 10 3 6 1 7 -5 3 -7 -4 -12 -13
-12 -20 0 -8 -7 -19 -15 -26 -26 -21 -28 13 -5 66 57 129 60 134 81 134 11 0
29 -4 39 -10z m967 -14 c7 -7 9 -16 4 -25 -7 -11 -15 -11 -45 -1 -39 13 -39
12 -30 34 7 17 49 13 71 -8z m841 -1 c12 -4 22 -15 22 -26 0 -23 1 -23 -63 -2
-63 20 -59 17 -52 35 6 16 21 14 93 -7z m-1078 -14 c0 -4 -6 -15 -12 -24 -11
-14 -19 -15 -50 -6 -42 11 -42 12 -28 39 8 16 15 17 50 8 22 -6 40 -14 40 -17z
m-351 8 c33 -12 36 -16 22 -38 -7 -11 -15 -11 -45 -1 -39 12 -43 19 -24 38 14
14 9 14 47 1z m984 -11 c13 -7 15 -13 7 -28 -6 -11 -16 -18 -23 -15 -6 2 -24
6 -39 9 -27 6 -38 33 -22 49 8 7 49 -1 77 -15z m307 -23 c0 -21 -10 -22 -65
-7 -49 14 -65 28 -50 44 9 9 115 -25 115 -37z m-1536 15 c15 -15 -82 -220
-104 -220 -14 0 -12 14 3 29 10 10 9 11 -5 6 -17 -7 -22 -17 -19 -40 1 -5 -5
-2 -12 7 -8 10 -17 15 -20 11 -17 -16 -4 31 35 125 l42 103 36 -6 c19 -4 39
-10 44 -15z m-3249 -6 c39 -9 80 -16 92 -16 14 0 20 -4 16 -11 -3 -6 -1 -7 5
-3 6 4 26 -1 44 -10 18 -9 69 -23 113 -31 44 -7 124 -27 178 -44 295 -91 514
-253 626 -466 18 -34 39 -64 47 -67 8 -3 14 -10 14 -15 0 -18 -346 91 -573
181 -16 6 -45 36 -67 67 -52 77 -61 84 -88 65 -12 -8 -22 -24 -22 -34 0 -10
-4 -21 -8 -24 -5 -3 -9 27 -9 67 0 83 -31 162 -83 212 -31 30 -53 28 -29 -2
13 -16 12 -17 -4 -4 -31 24 -30 3 1 -34 19 -24 28 -44 25 -56 -5 -19 -6 -19
-27 3 l-21 23 -3 -28 c-2 -16 -7 -27 -11 -25 -96 40 -161 74 -161 85 0 19 -24
16 -51 -6 l-23 -18 33 -17 c18 -10 50 -33 72 -53 30 -27 43 -33 49 -24 5 9 10
10 14 2 4 -6 0 -14 -8 -17 -9 -4 -34 10 -63 34 -78 66 -126 82 -235 77 -105
-4 -136 -12 -209 -51 -54 -30 -139 -116 -166 -168 -8 -17 -23 -40 -33 -51 -10
-11 -22 -40 -27 -65 l-10 -45 -8 59 c-4 35 -15 66 -26 77 -11 11 -19 25 -19
32 0 8 -4 7 -10 -3 -18 -28 -10 63 9 106 73 160 274 249 564 249 87 0 136 4
134 10 -2 6 -28 12 -58 14 -38 2 -48 5 -34 11 37 13 -106 22 -180 10 -141 -22
-250 -70 -341 -151 l-59 -53 50 53 c55 58 108 93 188 123 126 48 269 60 392
32z m4208 -3 c19 -19 -4 -33 -42 -26 -46 9 -51 12 -44 31 4 12 15 15 41 10 19
-3 40 -10 45 -15z m-575 -11 c39 -10 52 -18 52 -32 0 -11 -7 -18 -17 -18 -30
1 -114 25 -114 33 1 4 1 14 1 23 0 9 6 14 13 11 6 -2 36 -10 65 -17z m300 11
c8 -5 12 -17 10 -27 -3 -15 -11 -18 -38 -16 -41 3 -44 5 -35 31 7 22 39 28 63
12z m670 -12 c15 -6 22 -15 20 -27 -4 -19 -45 -21 -91 -3 -24 9 -26 14 -17 31
11 21 29 20 88 -1z m-1226 -30 c-11 -44 -83 -179 -96 -180 -52 -4 -75 1 -51
11 11 5 14 9 7 9 -16 1 -12 16 29 122 l30 77 42 -13 c26 -8 41 -18 39 -26z
m961 14 c11 -6 9 -31 -4 -38 -6 -4 -30 -2 -55 5 -41 12 -54 27 -37 44 7 7 80
-1 96 -11z m549 7 c72 -20 60 -56 -12 -38 -50 12 -73 26 -64 39 7 12 30 11 76
-1z m-829 -17 c11 -6 9 -27 -4 -40 -8 -8 -20 -8 -43 -1 -40 14 -39 13 -31 38
6 18 12 20 38 14 18 -3 35 -8 40 -11z m668 -5 c31 -9 39 -16 39 -35 0 -27 -11
-28 -75 -11 -30 8 -45 18 -45 28 0 33 19 37 81 18z m-1257 -8 c30 -11 34 2
-65 -215 -12 -26 -19 -33 -19 -20 0 11 -5 27 -11 35 -9 13 -10 12 -5 -2 7 -24
-11 -33 -22 -11 -10 19 -8 28 13 78 7 17 23 56 35 88 23 59 31 64 74 47z m330
-10 c5 -5 6 -15 3 -23 -4 -12 -14 -13 -42 -7 -44 10 -47 13 -39 34 5 13 14 16
38 10 17 -3 35 -10 40 -14z m658 4 c5 -3 8 -15 8 -26 0 -18 -4 -20 -41 -15
-49 6 -62 17 -53 41 5 14 14 16 43 11 20 -4 39 -9 43 -11z m-294 -9 c25 -7 30
-42 7 -51 -14 -6 -85 13 -85 22 0 19 24 44 38 40 9 -2 27 -7 40 -11z m-571
-19 c65 -17 77 -24 65 -39 -5 -7 -19 -38 -30 -69 -26 -69 -42 -100 -60 -111
-7 -5 -9 -14 -6 -20 4 -7 3 -8 -2 -4 -5 5 -9 12 -10 15 -2 19 -17 42 -27 42
-7 0 -7 -4 1 -12 15 -15 16 -38 1 -38 -5 0 -7 6 -3 13 6 10 4 10 -7 0 -7 -7
-18 -13 -23 -13 -6 0 -4 5 4 10 13 9 13 10 0 10 -9 0 -21 -5 -28 -12 -9 -9
-13 -8 -18 5 -6 16 73 237 85 237 3 0 29 -6 58 -14z m292 3 c30 -11 41 -32 22
-43 -8 -5 -71 12 -71 19 0 6 12 35 15 35 1 0 16 -5 34 -11z m673 1 c39 -11 54
-32 35 -48 -19 -16 -107 7 -107 28 0 32 14 36 72 20z m319 -2 c31 -9 39 -16
39 -35 0 -26 -21 -30 -82 -13 -42 12 -51 21 -42 44 7 19 33 20 85 4z m-573
-19 c18 -7 22 -14 16 -32 -9 -31 -8 -31 -63 -17 -53 13 -58 19 -41 51 11 20
30 19 88 -2z m-4904 -31 c-16 -18 -39 -41 -52 -51 -13 -11 -21 -21 -18 -24 2
-3 -4 -13 -13 -22 -20 -20 -51 -143 -51 -200 0 -36 29 -112 54 -141 26 -31
163 -449 185 -564 19 -102 70 -194 137 -246 72 -56 226 -106 273 -89 12 5 20
5 17 1 -2 -4 6 -7 19 -7 12 0 21 5 18 11 -2 6 34 25 86 44 102 37 184 91 286
191 39 37 99 95 134 128 41 40 61 66 57 76 -3 8 -1 15 4 15 5 0 13 12 16 26 8
29 -31 114 -52 114 -8 0 -11 6 -7 17 5 12 3 14 -8 7 -8 -4 -49 -10 -91 -12
l-78 -4 0 85 c0 46 3 105 6 131 l7 46 81 0 c83 0 134 -12 177 -42 20 -15 17
-15 -21 2 -38 15 -111 25 -168 21 -30 -2 8 -34 69 -58 35 -14 80 -38 99 -53
19 -15 45 -31 58 -35 13 -4 57 -22 98 -41 68 -31 74 -32 74 -14 0 10 -4 22
-10 25 -5 3 -10 10 -10 16 0 28 384 -219 393 -253 6 -23 -4 -109 -12 -103 -4
2 -24 -43 -45 -100 -71 -197 -213 -389 -378 -514 -50 -37 -187 -111 -215 -115
-6 -1 -20 -9 -30 -18 -10 -8 -33 -23 -50 -32 -31 -16 -35 -15 -80 8 -56 28
-227 101 -518 221 -201 83 -481 221 -502 247 -6 7 -13 25 -17 41 -3 15 -10 27
-15 27 -5 0 -7 9 -4 20 3 11 1 20 -4 20 -5 0 -17 14 -26 30 -10 17 -15 30 -11
30 12 0 -149 147 -180 165 l-31 17 34 -29 c95 -81 102 -88 96 -105 -4 -9 -13
-14 -21 -11 -15 6 -48 -22 -40 -35 3 -5 -2 -18 -10 -28 -14 -17 -15 -17 -10
-1 3 11 0 20 -10 24 -21 8 -32 -6 -14 -17 13 -8 12 -10 -2 -10 -10 0 -22 9
-28 20 -9 17 -8 20 10 20 11 0 20 6 20 13 0 16 -97 107 -115 107 -7 0 -18 6
-24 14 -9 10 -8 15 4 20 9 3 15 18 15 35 0 28 -3 30 -46 37 -61 9 -123 -1
-138 -22 -8 -10 -18 -14 -25 -9 -8 4 -31 -11 -62 -44 -46 -47 -49 -55 -49
-101 0 -50 17 -98 47 -132 8 -9 16 -22 17 -30 8 -38 39 -89 66 -108 16 -11 76
-43 134 -71 93 -44 117 -51 221 -64 119 -15 187 -40 243 -89 12 -11 22 -17 22
-13 0 3 12 -5 26 -18 15 -14 31 -22 37 -18 6 4 3 11 -8 20 -26 19 -9 16 21 -3
19 -13 22 -20 13 -30 -9 -11 -7 -15 5 -20 10 -4 15 -13 12 -21 -3 -8 -1 -11 4
-8 6 3 10 1 10 -5 0 -6 30 -25 68 -42 37 -18 71 -38 75 -45 4 -7 22 -20 40
-29 23 -11 8 8 -53 66 -85 82 -61 65 89 -65 44 -38 81 -74 81 -78 0 -5 -6 -5
-12 -1 -7 4 -5 -2 5 -13 9 -11 17 -23 17 -28 0 -12 -271 2 -369 20 -458 81
-795 312 -926 634 -88 216 -69 470 52 684 106 188 320 380 553 494 68 34 280
120 299 123 3 0 -8 -14 -25 -32z m4600 17 c44 -19 42 -41 -4 -38 -38 1 -53 14
-44 36 7 20 4 20 48 2z m705 -6 c40 -12 56 -39 31 -54 -11 -7 -120 22 -120 31
0 17 24 45 35 40 7 -2 31 -10 54 -17z m-955 -9 c27 -10 29 -22 8 -73 -7 -16
-12 -31 -12 -34 0 -3 -12 -32 -27 -65 -18 -41 -29 -55 -35 -46 -6 9 -10 10
-15 2 -15 -21 -38 -12 -37 15 2 53 62 211 80 211 7 0 24 -4 38 -10z m667 0
c11 -7 19 -21 19 -37 0 -24 -2 -25 -41 -20 -50 7 -60 15 -53 45 7 24 41 30 75
12z m-269 -26 c13 -9 9 -44 -6 -44 -35 0 -76 23 -76 42 0 18 4 19 37 13 21 -4
41 -9 45 -11z m711 -7 c36 -12 50 -38 27 -52 -16 -10 -111 17 -117 32 -8 19
18 45 36 38 9 -4 33 -12 54 -18z m-999 3 c14 -5 26 -14 26 -19 0 -24 -63 -170
-71 -165 -5 3 -9 2 -8 -3 4 -21 -2 -44 -10 -39 -5 3 -11 -4 -14 -15 -3 -13
-10 -18 -17 -14 -8 5 -8 11 -2 17 6 6 8 17 5 26 -4 10 -2 13 5 8 7 -4 12 -2
12 3 0 16 -20 13 -26 -4 -4 -8 -10 -15 -14 -15 -4 0 11 52 34 115 22 63 44
115 48 115 4 0 18 -4 32 -10z m709 -7 c9 -6 9 -35 -2 -51 -6 -11 -17 -11 -55
-1 -53 13 -57 17 -49 48 5 21 10 22 52 16 25 -4 49 -9 54 -12z m-290 -25 c19
-10 23 -33 6 -43 -19 -12 -99 16 -99 35 0 9 3 20 7 24 8 8 59 -2 86 -16z
m-1313 2 c0 -5 -4 -10 -10 -10 -5 0 -10 5 -10 10 0 6 5 10 10 10 6 0 10 -4 10
-10z m1016 -6 c13 -3 24 -10 24 -14 0 -13 -71 -204 -80 -215 -8 -10 -10 -16
-10 -37 0 -7 -7 -2 -16 11 -11 15 -23 21 -35 18 -11 -3 -19 -1 -19 4 0 6 18
62 40 126 22 65 40 119 40 121 0 2 7 1 16 -2 9 -3 27 -9 40 -12z m693 0 c50
-14 52 -17 46 -42 -4 -15 -8 -28 -10 -30 -1 -2 -27 3 -56 10 -54 13 -68 30
-55 64 7 18 10 18 75 -2z m-262 -41 c9 -24 -13 -36 -52 -29 -37 7 -51 25 -42
50 5 12 14 12 47 4 23 -6 44 -17 47 -25z m-308 6 c17 -6 31 -12 31 -12 -7 -37
-140 -392 -147 -394 -6 -2 -27 2 -46 10 l-34 15 63 186 c35 103 66 191 69 196
8 13 25 13 64 -1z m716 -7 c43 -16 50 -22 47 -42 -4 -33 -5 -34 -59 -21 -69
17 -76 22 -64 54 12 32 12 32 76 9z m-283 -18 c12 -8 10 -54 -3 -54 -5 0 -30
5 -55 11 -42 11 -57 32 -36 53 7 8 77 0 94 -10z m-318 -6 c22 -6 43 -13 45
-14 2 -2 -27 -95 -64 -207 l-67 -205 -49 16 c-27 9 -49 21 -49 26 0 6 29 97
65 201 36 105 65 191 65 193 0 4 13 2 54 -10z m-3954 -17 c0 -6 -4 -13 -10
-16 -5 -3 -10 1 -10 9 0 9 5 16 10 16 6 0 10 -4 10 -9z m4406 -11 c17 -7 24
-17 24 -35 0 -29 -7 -30 -79 -13 -50 11 -57 20 -45 53 7 17 46 15 100 -5z
m-286 -28 c0 -7 -20 -73 -44 -145 -24 -73 -51 -160 -61 -194 -21 -75 -25 -76
-112 -38 -3 1 124 392 131 403 8 14 86 -10 86 -26z m421 -9 c37 -7 49 -23 38
-50 -8 -22 -8 -22 -66 -6 -32 9 -60 18 -62 19 -2 2 0 15 3 30 6 22 11 25 33
19 14 -3 38 -9 54 -12z m-298 -15 c10 -5 17 -15 14 -21 -2 -7 -30 -99 -63
-204 -43 -142 -62 -193 -74 -193 -37 0 -90 22 -90 37 0 9 23 88 51 177 27 88
55 176 61 194 10 32 12 33 46 27 20 -4 45 -11 55 -17z m131 -30 c47 -11 48 -1
-23 -233 -28 -93 -54 -178 -57 -188 -6 -19 -7 -19 -95 4 l-37 9 59 203 c33
111 61 207 63 214 5 11 12 11 90 -9z m-4186 -16 c2 -7 -6 -12 -17 -12 -21 0
-27 11 -14 24 9 9 26 2 31 -12z m2835 -19 c-5 -13 -2 -15 11 -10 12 5 15 3 11
-6 -4 -6 0 -4 8 6 12 14 16 15 20 4 11 -29 -9 -39 -40 -20 -27 16 -35 43 -12
43 4 0 5 -8 2 -17z m1487 -4 c23 -7 44 -18 46 -24 3 -6 -15 -80 -39 -165 -24
-85 -50 -179 -57 -208 -9 -41 -16 -52 -29 -48 -9 3 -36 10 -61 17 -25 7 -47
14 -48 15 -4 3 107 414 115 427 3 5 11 6 18 3 7 -2 32 -10 55 -17z m-4448 -26
c-10 -52 -54 -105 -79 -96 -7 3 -16 -2 -19 -11 -3 -9 -11 -16 -17 -16 -5 0 -2
9 8 20 10 12 25 18 32 16 8 -4 13 3 13 17 0 24 23 64 48 85 21 16 20 16 14
-15z m4598 -17 c25 -7 46 -20 48 -28 3 -18 -96 -410 -106 -419 -4 -3 -35 3
-69 13 l-62 19 14 47 c7 26 32 117 54 202 23 85 44 161 46 168 5 15 19 15 75
-2z m-4565 -15 c3 -5 1 -12 -5 -16 -5 -3 -10 1 -10 9 0 18 6 21 15 7z m3545
-20 c0 -24 -14 -41 -34 -40 -19 0 -19 1 4 11 15 6 20 12 12 15 -6 3 -10 9 -6
14 7 12 24 12 24 0z m-3925 -61 c3 -6 -1 -7 -9 -4 -18 7 -21 14 -7 14 6 0 13
-4 16 -10z m588 3 c-7 -2 -19 -2 -25 0 -7 3 -2 5 12 5 14 0 19 -2 13 -5z
m3317 3 c0 -2 -6 -9 -14 -15 -11 -9 -16 -9 -22 0 -4 7 -3 9 4 5 6 -3 13 -2 17
4 6 10 15 14 15 6z m-3405 -16 c-16 -4 -39 -8 -50 -8 -16 0 -15 2 5 8 14 4 36
8 50 8 22 0 22 -1 -5 -8z m148 3 c-7 -2 -19 -2 -25 0 -7 3 -2 5 12 5 14 0 19
-2 13 -5z m88 -43 c35 -10 109 -38 164 -60 54 -22 109 -42 122 -44 21 -4 70
-25 468 -196 105 -45 213 -90 240 -100 29 -11 41 -19 29 -19 -24 -1 -117 32
-214 77 -74 33 -178 79 -292 128 -72 31 -77 32 -67 12 18 -33 29 -78 19 -78
-14 0 -286 126 -360 167 -36 20 -83 51 -104 70 -22 18 -44 33 -50 33 -6 0 -20
7 -30 15 -28 21 -3 20 75 -5z m-1241 -65 c0 -10 -16 -4 -40 16 l-25 20 33 -16
c17 -8 32 -18 32 -20z m4370 7 c0 -13 -12 -22 -22 -16 -10 6 -1 24 13 24 5 0
9 -4 9 -8z m-4409 -50 c9 -26 20 -56 24 -67 5 -13 5 -17 -2 -10 -14 14 -54
125 -45 125 4 0 14 -22 23 -48z m4502 37 c26 -7 37 -15 37 -29 0 -23 -2 -23
-52 -9 -27 7 -38 15 -38 29 0 23 2 23 53 9z m-4378 -18 c-3 -5 29 -15 70 -22
47 -8 70 -16 61 -21 -7 -4 -36 -1 -62 6 -27 8 -62 17 -79 21 -27 7 -28 8 -10
15 27 11 27 11 20 1z m4552 -51 c-3 -17 -37 -18 -79 -1 -19 7 -25 15 -21 29 5
19 7 19 54 4 35 -11 49 -21 46 -32z m95 -10 c29 -8 35 -14 31 -30 -6 -23 -6
-23 -55 -9 -35 9 -47 26 -31 42 8 9 11 9 55 -3z m137 -40 c35 -9 39 -13 33
-31 -9 -24 -13 -24 -70 -8 -31 8 -41 16 -38 26 4 8 6 19 6 25 0 6 6 8 14 5 8
-3 33 -11 55 -17z m191 -77 c0 -27 -9 -28 -79 -7 -40 11 -51 19 -47 30 3 9 6
19 6 24 0 4 27 1 60 -8 51 -14 60 -20 60 -39z m-5026 -43 l7 -25 -15 25 c-9
14 -15 32 -15 40 0 13 1 13 8 0 5 -8 12 -26 15 -40z m5144 30 c31 -8 42 -16
42 -30 0 -29 -12 -31 -74 -13 -40 11 -56 21 -56 33 0 22 10 31 29 26 9 -3 35
-10 59 -16z m200 -75 c7 -31 -12 -36 -69 -19 -67 21 -74 27 -60 52 10 20 12
20 68 2 38 -11 59 -24 61 -35z m-4561 -40 c-8 -8 -25 -30 -36 -49 -12 -19 -28
-37 -37 -40 -9 -4 -3 10 14 32 17 21 39 55 49 76 15 33 19 36 21 18 2 -12 -3
-29 -11 -37z m4648 35 c21 -8 25 -14 19 -33 -9 -31 -8 -30 -48 -17 -37 12 -40
17 -30 44 7 19 22 20 59 6z m-6765 -40 c-20 -13 -33 -13 -25 0 3 6 14 10 23
10 15 0 15 -2 2 -10z m2121 -63 c-13 -13 -15 11 -4 40 7 16 8 15 11 -6 2 -13
-1 -28 -7 -34z m1036 -48 c79 -50 161 -97 181 -104 20 -7 29 -14 19 -14 -24
-1 -81 29 -222 117 -125 78 -145 92 -131 92 5 0 73 -41 153 -91z m-1076 13
c-12 -22 -41 -48 -41 -36 0 4 -10 -1 -22 -12 -24 -21 -78 -47 -84 -41 -2 2 17
16 43 30 27 14 62 38 78 51 36 30 38 31 26 8z m-626 -70 c-3 -3 -11 0 -18 7
-9 10 -8 11 6 5 10 -3 15 -9 12 -12z m455 -6 c-16 -15 -80 -32 -80 -21 0 8 60
34 80 35 13 0 13 -2 0 -14z m-257 -43 c-7 -2 -19 -2 -25 0 -7 3 -2 5 12 5 14
0 19 -2 13 -5z m257 -3 c-8 -5 -26 -10 -40 -10 -20 0 -22 2 -10 10 8 5 26 10
40 10 20 0 22 -2 10 -10z m100 1 c0 -17 -25 -28 -50 -21 -25 7 -23 9 20 23 23
8 30 8 30 -2z m-964 -78 c-8 -8 -12 -3 -21 27 l-7 25 17 -23 c9 -13 14 -26 11
-29z m484 27 c0 -11 -2 -20 -4 -20 -2 0 -6 9 -9 20 -3 11 -1 20 4 20 5 0 9 -9
9 -20z m-540 -34 c-13 -13 -35 7 -25 24 5 8 11 8 21 -1 10 -8 12 -15 4 -23z
m954 19 c-4 -8 -18 -15 -33 -15 l-26 1 30 14 c17 7 31 14 32 14 1 1 0 -6 -3
-14z m-329 -15 c3 -5 -1 -10 -9 -10 -8 0 -18 5 -21 10 -3 6 1 10 9 10 8 0 18
-4 21 -10z m237 -6 c33 7 33 7 8 -8 -31 -17 -81 -10 -73 10 4 11 9 12 19 3 7
-6 27 -8 46 -5z m-960 -96 c-15 -15 -26 -4 -18 18 5 13 9 15 18 6 9 -9 9 -15
0 -24z m-175 -83 c75 -21 81 -23 62 -24 -52 -3 -201 68 -239 114 -7 8 17 -5
53 -29 37 -24 92 -52 124 -61z m-109 20 c20 -14 32 -25 27 -25 -12 0 -75 38
-75 45 0 10 11 5 48 -20z m67 -43 c-3 -3 -11 0 -18 7 -9 10 -8 11 6 5 10 -3
15 -9 12 -12z m475 2 c25 -4 53 -15 63 -25 10 -11 22 -19 28 -19 5 0 53 -25
105 -55 53 -30 98 -55 100 -55 4 0 248 -149 379 -231 67 -42 88 -54 265 -151
69 -37 140 -73 158 -79 27 -9 45 -29 26 -29 -9 0 -244 119 -267 135 -15 10
-28 10 -72 -1 l-53 -14 -79 56 c-43 31 -98 68 -123 82 -32 19 -40 28 -27 30 9
2 43 -13 76 -32 32 -20 68 -36 79 -36 11 0 32 -4 46 -10 14 -5 26 -8 26 -6 0
2 -70 48 -156 101 -112 70 -158 94 -164 85 -4 -7 -10 -8 -14 -2 -3 5 -33 20
-66 32 -33 12 -60 26 -60 30 0 5 -14 11 -31 15 -17 4 -39 15 -48 24 -10 10
-43 35 -75 56 -31 20 -55 39 -52 42 7 7 123 -54 234 -124 57 -36 105 -63 108
-61 6 7 -241 153 -329 194 -66 31 -91 37 -170 42 -65 4 -85 8 -67 13 25 8 78
6 160 -7z m-430 -14 c8 -5 11 -10 5 -10 -5 0 -17 5 -25 10 -8 5 -10 10 -5 10
6 0 17 -5 25 -10z m193 3 c-18 -2 -48 -2 -65 0 -18 2 -4 4 32 4 36 0 50 -2 33
-4z m164 -9 c-3 -3 -12 -4 -19 -1 -8 3 -5 6 6 6 11 1 17 -2 13 -5z m20 -57
c29 -17 50 -33 48 -35 -3 -3 -23 8 -46 24 -39 27 -50 29 -170 34 -71 4 -131 9
-134 12 -3 2 52 3 122 1 121 -5 131 -7 180 -36z m233 -151 c22 -27 -5 -17 -31
10 -21 24 -22 26 -3 16 11 -6 26 -18 34 -26z m28 -71 c-3 -3 -9 2 -12 12 -6
14 -5 15 5 6 7 -7 10 -15 7 -18z m305 -32 c-7 -2 -19 -2 -25 0 -7 3 -2 5 12 5
14 0 19 -2 13 -5z m100 -301 c124 -120 235 -216 259 -225 7 -2 10 -7 7 -11 -4
-4 -40 20 -80 53 -86 69 -328 300 -316 300 5 1 64 -52 130 -117z m302 -222
c-3 -5 -11 -10 -16 -10 -6 0 -7 5 -4 10 3 6 11 10 16 10 6 0 7 -4 4 -10z"/>
<path d="M2030 2746 c14 -9 32 -15 40 -15 13 0 13 1 0 8 -8 5 -26 12 -40 15
l-25 7 25 -15z"/>
<path d="M5407 2506 c-4 -10 -1 -13 8 -9 8 3 12 9 9 14 -7 12 -11 11 -17 -5z"/>
<path d="M2123 1225 c4 -5 -7 -17 -25 -28 -18 -10 -25 -16 -16 -13 11 3 22 -2
28 -15 6 -11 15 -17 20 -14 5 3 20 0 35 -7 17 -7 29 -8 33 -2 8 11 27 12 38 2
11 -12 26 -10 19 2 -4 7 3 7 20 0 33 -13 32 -13 39 6 3 8 2 12 -4 9 -6 -3 -10
2 -10 11 0 10 -3 14 -7 11 -3 -4 -13 -1 -21 6 -13 10 -15 9 -9 -5 3 -10 2 -18
-3 -18 -6 0 -10 5 -10 10 0 7 -7 7 -21 0 -22 -12 -50 2 -46 23 1 7 -6 11 -16
9 -10 -2 -26 3 -35 10 -9 7 -13 8 -9 3z"/>
<path d="M2195 1190 c3 -5 11 -10 16 -10 6 0 7 5 4 10 -3 6 -11 10 -16 10 -6
0 -7 -4 -4 -10z"/>
<path d="M5810 2394 c0 -2 12 -16 26 -31 26 -27 26 -27 13 -3 -7 14 -13 28
-12 31 1 3 -5 6 -13 6 -7 0 -14 -2 -14 -3z"/>
<path d="M2010 825 c0 -8 12 -17 28 -21 15 -3 33 -7 40 -10 25 -8 11 6 -28 26
-33 17 -40 18 -40 5z"/>
<path d="M4680 4358 c-6 -7 -28 -47 -48 -88 -21 -41 -92 -172 -159 -290 -155
-277 -151 -269 -251 -445 -47 -82 -101 -179 -120 -215 -20 -36 -46 -82 -59
-102 -28 -46 -22 -65 29 -78 42 -12 77 -6 79 13 1 7 4 1 8 -12 5 -19 18 -28
56 -38 79 -20 79 -20 130 75 86 159 118 216 160 292 72 128 136 250 198 375
33 66 67 132 77 146 10 14 26 45 36 70 10 24 39 83 66 130 26 48 48 96 48 108
0 31 -28 26 -36 -6 -4 -16 -16 -46 -27 -68 -12 -22 -20 -43 -19 -47 1 -3 -5
-12 -13 -18 -8 -7 -15 -19 -15 -28 0 -8 -6 -23 -14 -31 -7 -9 -33 -52 -56 -96
-69 -130 -106 -198 -130 -240 -13 -22 -70 -128 -128 -235 -137 -255 -130 -244
-149 -229 -13 11 -20 8 -44 -21 -15 -19 -39 -59 -51 -87 -13 -29 -29 -53 -35
-53 -7 0 -13 3 -13 7 0 8 45 89 170 308 101 177 230 422 230 437 0 5 5 14 10
21 32 37 189 327 196 360 2 11 8 23 14 27 18 11 -1 42 -21 37 -11 -3 -19 -1
-19 4 0 4 -7 6 -16 2 -8 -3 -13 -11 -10 -18 2 -7 -3 -21 -12 -31 -14 -16 -52
-84 -57 -104 -5 -18 -29 -60 -35 -60 -4 0 -7 -6 -7 -13 0 -6 -13 -32 -29 -57
-15 -25 -28 -47 -29 -50 0 -3 -10 -22 -22 -42 -14 -24 -30 -38 -43 -38 -11 0
-20 4 -20 8 0 14 61 132 97 189 18 29 33 55 33 59 0 4 16 31 35 60 19 29 35
56 35 60 0 4 7 15 16 25 14 16 14 18 -5 28 -15 8 -23 8 -31 -1z m-392 -880
c-47 -84 -104 -188 -127 -230 -30 -54 -48 -78 -61 -78 -10 0 -21 4 -24 8 -5 9
143 284 222 410 40 65 47 72 60 59 13 -14 5 -33 -70 -169z m-100 -278 c-7 -10
-14 -18 -15 -16 -6 6 9 36 18 36 5 0 4 -9 -3 -20z"/>
<path d="M4990 4292 c-13 -4 -33 -28 -35 -42 -1 -3 -9 -21 -20 -40 -65 -120
-89 -164 -128 -241 -25 -47 -55 -103 -69 -125 -60 -96 -400 -755 -395 -767 3
-7 21 -18 40 -24 46 -14 56 -7 102 82 21 39 52 97 70 130 121 224 282 544 291
579 3 14 10 26 15 26 5 0 9 6 9 13 0 18 155 322 179 351 17 20 10 48 -11 52
-14 2 -18 -5 -18 -25 0 -16 -11 -49 -25 -75 -13 -25 -22 -46 -19 -46 3 0 -4
-13 -15 -29 -12 -16 -21 -36 -21 -44 0 -9 -4 -19 -10 -22 -5 -3 -10 -15 -10
-26 0 -11 -3 -18 -8 -15 -4 2 -25 -30 -47 -72 -22 -43 -42 -79 -45 -82 -9 -9
-93 -163 -165 -303 -45 -86 -71 -124 -79 -116 -3 3 17 50 45 105 110 214 189
371 189 377 0 3 13 28 28 54 15 26 34 64 42 83 16 40 83 161 112 203 22 31 21
47 -2 39z m-468 -990 c-19 -46 -48 -70 -32 -27 12 31 41 77 46 72 2 -2 -4 -22
-14 -45z m-44 -92 c-12 -35 -19 -42 -36 -31 -9 6 -7 14 8 34 28 36 41 34 28
-3z"/>
<path d="M5644 4118 c-8 -13 5 -28 20 -22 17 7 16 31 -1 31 -8 0 -16 -4 -19
-9z"/>
<path d="M5253 4080 c-10 -10 -25 -36 -32 -57 -7 -21 -23 -54 -35 -73 -60 -95
-69 -145 -27 -145 22 0 31 15 82 129 46 101 56 133 48 147 -12 24 -14 24 -36
-1z"/>
<path d="M7 310 c7 -8 20 -15 29 -16 9 -1 13 1 9 4 -4 4 -10 7 -13 7 -4 0 -14
4 -22 9 -12 7 -13 6 -3 -4z"/>
<path d="M0 147 l0 -147 151 0 152 0 -44 41 c-26 24 -34 36 -21 29 28 -14 39
-8 17 10 -12 10 -21 10 -40 2 -14 -6 -24 -8 -22 -3 3 13 -53 62 -64 56 -5 -4
-13 5 -19 19 -5 14 -12 26 -15 26 -4 0 -3 -4 0 -10 3 -5 1 -10 -4 -10 -6 0
-11 11 -11 24 0 15 -16 42 -40 67 l-40 43 0 -147z m55 42 c11 -16 1 -19 -13
-3 -7 8 -8 14 -3 14 5 0 13 -5 16 -11z m175 -149 c22 -19 23 -39 1 -25 -11 6
-35 45 -28 45 2 0 14 -9 27 -20z"/>
<path d="M150 256 c0 -2 7 -9 15 -16 9 -7 15 -8 15 -2 0 5 -7 12 -15 16 -8 3
-15 4 -15 2z"/>
<path d="M196 209 c13 -21 14 -42 2 -56 -7 -9 -6 -17 5 -28 9 -8 19 -15 23
-15 4 0 18 -10 31 -22 14 -13 23 -17 23 -9 0 11 3 11 15 1 8 -7 15 -18 15 -24
0 -6 -4 -5 -9 3 -5 7 -14 10 -20 6 -19 -11 8 -37 31 -29 17 5 19 2 13 -15 -6
-19 -2 -21 30 -21 33 0 35 2 31 26 -7 35 -15 42 -27 24 -9 -12 -10 -11 -5 4 6
19 -8 36 -29 36 -5 0 -3 -4 5 -10 8 -5 11 -12 7 -17 -9 -9 -28 17 -21 29 7 10
-26 58 -39 58 -7 0 -7 -4 1 -12 7 -7 12 -16 12 -21 0 -5 -7 -2 -15 7 -8 8 -15
20 -15 26 0 6 -4 9 -10 5 -5 -3 -16 8 -25 24 -8 16 -20 33 -26 37 -8 5 -9 3
-3 -7z m29 -59 c3 -5 1 -10 -4 -10 -6 0 -11 5 -11 10 0 6 2 10 4 10 3 0 8 -4
11 -10z"/>
</g>
</svg>
